<svg xmlns="http://www.w3.org/2000/svg" viewBox="0 0 15 12" width="15" height="12">
	<style>
		tspan { white-space:pre }
		.shp0 { fill: #a4aead } 
	</style>
	<g id="HEADER">
		<g id="Menu">
			<g id="hover">
				<path id="Фигура 1" class="shp0" d="M14.38 11.41C13.93 12.06 13.05 12.22 12.41 11.77L9.89 9.91C9.48 9.63 9.26 9.16 9.28 8.7C8.53 9.5 7.55 10.05 6.45 10.25C5.09 10.49 3.73 10.2 2.6 9.41C1.47 8.63 0.71 7.45 0.47 6.09C0.22 4.73 0.52 3.36 1.3 2.22C2.91 -0.12 6.12 -0.71 8.45 0.91C10.57 2.39 11.24 5.18 10.14 7.44C10.57 7.26 11.08 7.29 11.49 7.58L14.02 9.43C14.66 9.88 14.82 10.77 14.38 11.41ZM9.05 4.52C8.88 3.57 8.35 2.75 7.56 2.2C5.94 1.07 3.7 1.48 2.58 3.11C1.45 4.75 1.86 7 3.48 8.13C5.11 9.26 7.35 8.85 8.47 7.22C9.02 6.42 9.22 5.47 9.05 4.52Z" />
			</g>
		</g>
	</g>
</svg>